<svg xmlns="http://www.w3.org/2000/svg" width="455" height="360"><g fill="none" fill-rule="evenodd"><path fill="#FEFEFE" fill-rule="nonzero" d="M180 354C84 354 6 275.9 6 180S84 6 180 6c95.9 0 173.9 78.1 173.9 174s-78 174-173.9 174z"/><path fill="#1C2957" d="M359.9 180c0 99.4-80.6 180-179.9 180C80.6 360 0 279.4 0 180S80.6 0 180 0c99.3 0 179.9 80.6 179.9 180zm-348 0c0 92.6 75.4 168 168.1 168 92.6 0 168-75.4 168-168S272.6 12 180 12C87.3 12 11.9 87.4 11.9 180z"/><path fill="#FEFEFE" fill-rule="nonzero" d="M169.1 123.9S258.2-3.7 400.3 9c0 0-1.5 35.3-1.5 75.2 0 0-85.1-38-170.9 86.9 0 0 .5-15.3-21.9-18.6l-36.9-28.6z"/><path fill="#1C2957" fill-rule="nonzero" d="m219.5 149.3-8.8-7.5 13.1-15.4-4.4-3.7-13.1 15.3-22-18.6L206.8 93l8.7 7.5-13 15.4 4.4 3.7 13-15.4 22 18.7z"/><path fill="#1C2957" d="m246.3 117.4-29-35.9 27-21.7 18.1 22.4-15.7 12.7 10.8 13.4-11.2 9.1zm-2.4-35.1-3.6-4.4-4.5 3.6 3.6 4.5 4.5-3.7z"/><path fill="#1C2957" fill-rule="nonzero" d="M278.4 91.1 257.6 50l12.9-6.5 15.6 30.9 5.1-2.6-15.5-30.9 12.8-6.5 20.8 41.2z"/><path fill="#1C2957" d="m315.1 72.3-10.5-44.9 33.6-7.9 4.7 19.6-5.7 1.4.7 2.8 5.6-1.4 5.3 22.5-14 3.3-4-16.8-5.6 1.3 4 16.8-14.1 3.3zm13-32.7-1.3-5.6-5.6 1.3 1.3 5.6 5.6-1.3z"/><path fill="#1C2957" fill-rule="nonzero" d="M355.3 62.7V51.1l20.2.1v-5.8h-20.2l.1-28.8H390l-.1 11.6-20.1-.1v5.8h20.1v28.9zM195.1 90.5 184 81.8l-2.9 3.7-3.7-3 10.2-12.8 3.7 2.9-2.9 3.7 11 8.7zm9.1-11.5-12.8-13.7 4.3-4 4.8 5.1 2.6-2.4-4.8-5.2 4.2-4 12.9 13.8-4.3 4-4.8-5.2-2.6 2.4 4.8 5.2zm13.3-12.5L206.9 51l11.7-7.9 2.6 3.8-6.8 4.7 1.4 1.9 6.8-4.6 2.6 3.9-6.8 4.6 1.3 1.9 6.8-4.6 2.7 3.9z"/><path fill="#1A2354" fill-rule="nonzero" d="M106.4 78.6c-6 1-13.5 3-16.8 4.4-3.3 1.4-7.9 3.7-10.2 5.1-2.5 1.5-3.9 2.9-3.3 3.3.5.4 3.7 1.4 7 2.1 3.3.7 9.2 2.9 13 4.8 4.1 2.1 9.3 5.9 12.6 9.1 3.1 3.1 6.8 8 8.2 10.9 1.5 2.8 3.4 7.8 4.2 11 .9 3.2 1.5 10 1.5 15.7 0 6.9-.6 12.2-2 17.3-1.1 3.9-3.4 10-5.1 13.5-1.8 3.4-4.9 8.7-6.9 11.7-2.1 3-8.6 11.7-14.6 19.2s-13.3 17.4-16.1 22c-2.9 4.6-6.5 11.2-7.9 14.8-1.5 3.6-3.5 9.4-4.5 13-.9 3.6-1.4 6.9-1.1 7.3.4.4 25 .7 54.8.7 29.7 0 54.3-.2 54.5-.5.2-.2-.2-2.8-1-5.7-1.1-3.8-1.5-11.2-1.5-26.8 0-14.1.6-26.1 1.7-35 .9-7.4 2.2-20.9 2.8-30 .6-9.1.9-22.1.6-29-.4-7-1.5-16-2.6-20.5-1.1-4.4-3.1-10.5-4.4-13.5-1.4-3-4.9-8.1-7.9-11.4-3.1-3.5-7.5-7-10.8-8.6-3-1.6-10.2-3.8-16-4.9-5.8-1.2-12.1-2.1-14-2-1.9.1-8.3 1-14.2 2z"/><path fill="#FEFEFE" fill-rule="nonzero" d="M119 90.3c.4 1.5 1.7 3.7 2.9 5 1.9 2.1 2.8 2.3 7.2 1.7 4.9-.6 5-.6 7.7 3.2 1.5 2.1 3.2 5.8 3.8 8.3.7 2.5.9 6.2.6 8.3-.3 2-1.7 4.9-2.9 6.5-1.3 1.5-3.6 3-5 3.5-2.4.6-2.6 1-2 4 .5 1.7.7 9.5.7 17.2-.1 10.9-.6 15.4-2.2 20.5-1.1 3.6-3.6 10.9-5.6 16.3-2.9 7.8-3.6 11.1-3.6 17 0 6.2.4 8.1 3.2 13.6 2 3.9 4.9 7.8 7.3 9.7 2.2 1.7 6.2 4.3 9 5.7 2.7 1.3 8.2 3.4 12 4.6 3.8 1.2 7.2 2.1 7.5 2.1.3 0 .8-5.5 1.3-12.2.4-6.8 1.6-20.6 2.8-30.8 1.1-10.2 2.3-27.9 2.6-39.5.5-17.2.3-22.7-1.1-30.5-.9-5.4-3-12.3-4.7-16-1.7-3.6-4.7-8.2-6.7-10.3-2-2.1-5.7-4.9-8.2-6.2-2.5-1.2-6.9-2.8-9.8-3.4-2.8-.6-8-1.1-11.3-1.1h-6.2l.7 2.8zm251.713-15.843c-3.704-.029-7.326.13-10.856.485l-2.715.29-4.235.422-3.19.333-1.772.194-1.676.192-1.589.192-1.015.129-.983.13-.954.131-.927.134-.903.138-1.315.212-.855.147-1.255.229-.822.16-.815.166-.809.172-.806.18-.806.188-.809.196-.814.205-.821.215-.832.224-.846.235-.86.246-1.328.39-.912.277-.938.289-.479.15c-15.618 4.894-30.923 13.303-46.324 26.422l-1.91 1.629-1.865 1.604c-.308.265-.613.53-.917.794l-1.808 1.578-1.778 1.567-1.754 1.562c-.291.26-.581.52-.87.781l-1.73 1.566c-.575.523-1.148 1.048-1.722 1.575l-1.719 1.59c-.86.8-1.721 1.606-2.588 2.424l-1.74 1.652-.877.838-1.772 1.706-.896.869-1.817 1.772-1.856 1.824-.943.932-1.924 1.912-.981.98a103.594 103.594 0 0 0-5.014 5.4c-3.655 4.217-7.043 8.724-10.084 13.23l-.776 1.162c-.377.57-.737 1.123-1.08 1.657l-.66 1.043-.481.774-.739 1.219-39.167 48.438a2.85 2.85 0 0 0-.238 3.242l54.3 91.9a2.85 2.85 0 0 0 4.538.495l1.15-1.242 1.287-1.405.633-.696 1.501-1.674.84-.95.54-.623.467-.553.275-.334.245-.308.218-.284.192-.262c.03-.042.06-.083.087-.124l.155-.233a6.43 6.43 0 0 0 .07-.11l.12-.21a3.14 3.14 0 0 0 .182-.379l.092-.256c.314-.896.514-1.22.952-1.608l.16-.135 1.785-1.384a32.59 32.59 0 0 0 3.166-2.908l.523-.552.534-.582c.18-.2.362-.404.546-.614l.557-.646c.094-.11.188-.223.283-.336l.577-.696.293-.361.596-.749.61-.784.623-.82.638-.857.324-.443.66-.915.677-.954.691-.994.352-.512.717-1.055.364-.544.742-1.118.378-.576c19.903-30.404 45.588-52.138 77.624-60.347l2.656-.664.843-.206.842-.204c.348-.083.696-.165 1.044-.245l1.044-.235 1.043-.225 1.044-.215c.348-.07.697-.138 1.046-.204l1.048-.194c.175-.032.35-.063.526-.093l1.054-.178a93.46 93.46 0 0 1 1.06-.167l1.066-.157 1.072-.145 1.08-.134c.362-.043.725-.084 1.09-.123l1.1-.112 1.11-.1c.558-.048 1.12-.091 1.687-.13l1.142-.071.576-.032 1.162-.053 1.179-.042.595-.016 1.204-.024a125.8 125.8 0 0 1 4.36.014l1.292.032 1.314.045.666.027 1.35.064 1.373.077 1.4.09 1.425.103c.48.037.965.076 1.454.117l1.482.13.751.07 1.527.15.774.08 1.573.171c.53.06 1.064.12 1.605.185l1.638.198 1.672.213 1.708.227 1.743.24 1.78.256 1.818.27 1.858.284 1.896.3 1.938.313 1.98.33 3.049.52 2.088.367 1.06.19c2.164.387 3.91-1.708 3.195-3.743l-.333-.858-.12-.317-.25-.69a70.933 70.933 0 0 1-.132-.372l-.275-.798a104.165 104.165 0 0 1-2.392-8.201c-4.942-19.8-5.212-40.8 2.219-60.38 5.433-14.317 14.78-26.981 28.624-37.584 1.614-1.236 1.452-3.716-.309-4.732l-.505-.285-.797-.44-.614-.333-1.057-.564-1.126-.59-.59-.303-1.229-.625-1.296-.648a225.176 225.176 0 0 0-18.816-8.25c-19.184-7.396-38.374-11.893-56.38-12.036z"/><path fill="#1C2957" fill-rule="nonzero" d="M370.668 80.157c17.224.137 35.779 4.484 54.375 11.654a219.508 219.508 0 0 1 18.338 8.04l1.257.628 1.19.605.728.377-.107.09c-12.784 10.67-21.639 23.227-26.97 37.274-7.903 20.825-7.618 42.952-2.42 63.782l.202.797a113.579 113.579 0 0 0 1.677 5.883l.149.464-2.43-.408-1.906-.313-2.789-.443-1.814-.279-1.779-.265-1.744-.251-.86-.121-1.694-.232-1.663-.218-1.63-.206-1.6-.192-1.57-.18-1.542-.166-.76-.079-1.498-.148-1.473-.135-1.445-.122-1.42-.11-1.397-.098-1.372-.086-.677-.038-1.338-.068-1.317-.055-.65-.023-1.285-.038-.635-.014-1.256-.02-1.238-.008c-.82-.002-1.626.004-2.423.018l-1.187.026-1.172.037-1.158.049-1.144.06c-.19.01-.379.022-.567.034l-1.125.076c-.373.027-.745.056-1.114.087l-1.103.098-.548.053-1.088.114-1.08.124-1.072.135-1.065.145c-.354.05-.706.102-1.058.156l-1.054.166-1.048.176-1.045.186-1.042.196-1.04.205c-.346.07-.692.142-1.038.216l-1.038.225-1.038.235-1.04.244-.857.207-2.552.632c-33.731 8.322-60.625 30.735-81.367 62.052l-1.345 2.043-.7 1.049-.344.508-.674.986-.657.945-.64.905-.624.866-.608.828-.593.79-.577.753-.562.716-.548.682-.269.328-.527.63-.513.596-.252.286-.493.548-.242.262-.475.502a27.633 27.633 0 0 1-2.346 2.187l-.41.33-1.672 1.296-.14.114-.226.195c-1.105.98-1.82 2.041-2.426 3.654l-.071.194-.14.188-.319.4-.453.545-.416.487-.467.538-.792.898-.691.774-1.029 1.136-51.341-86.892 38.056-47.062a2.85 2.85 0 0 0 .173-.238l.43-.72.425-.695.158-.257c.293-.472.603-.964.93-1.475l.679-1.047c.35-.535.717-1.088 1.1-1.656 2.922-4.328 6.175-8.657 9.667-12.686a97.92 97.92 0 0 1 4.737-5.103l1.932-1.925 1.88-1.863 1.838-1.806 1.798-1.754 1.767-1.709a513.1 513.1 0 0 1 4.318-4.108l1.704-1.592 1.7-1.572 1.702-1.557 1.71-1.548c.286-.258.572-.515.86-.772l1.734-1.545 1.758-1.55.89-.777 1.805-1.567 1.844-1.587 1.89-1.61c14.553-12.398 28.922-20.371 43.538-25.073l1.254-.396 1.332-.409.86-.257 1.251-.364 1.216-.34.795-.215.785-.204 1.165-.29.772-.184.772-.175.774-.169.778-.161.786-.156.795-.15.809-.146.823-.14.84-.137 1.3-.2.897-.128 1.395-.19 1.465-.187 1.542-.186 2.192-.248 2.989-.319 3.302-.334 2.657-.266 1.093-.117a93.897 93.897 0 0 1 11.346-.575z"/><path fill="#1C2957" fill-rule="nonzero" d="M172.1 340c-3.8 0-7.6-.1-10.8-.5-14.8-1.4-36.4-5.7-54.9-17.8-.3-.2-19.6-11.7-31.3-31.9-6.9-11.7-9.9-25.7-8.9-40.4.7-9.9 4-19.7 9.7-29.2-.5 4.5-.5 12.9 4.4 20.3 5.1 7.7 14.1 12.2 26.7 13.2 0 0 3.3.5 8.5.5 6.4 0 15.8-.7 25.2-4 5.5-1.9 11.2-3.9 17.6-10.9 2.1-2.3 11.1-14 20.6-26.3 9.1-11.9 18.6-24.2 21.8-27.9 4.1-4.8 8.9-9.3 14-13.1 5-3.6 9-5.7 11.9-6.7-3.6 15.4-10.8 67 38.1 108.7-2.7 5.3-10.6 20.2-16.3 29.9-3.5 5.8-12.7 13.4-21.2 20.1l-.9.7c-2.9 2.4-6.3 5.1-14.9 8.7-13.8 6-32.1 6.6-39.3 6.6z"/><path fill="#FEFEFE" d="M230.5 161.7s-21.5 62.7 37.8 111.6c0 0-10.2 19.9-17.5 32.1-3.4 5.6-11.2 12.5-21.8 20.9-3.3 2.5-6.7 5.6-16.4 9.7-11.8 5.1-27.7 6.9-40.5 6.9-4.1 0-7.8-.2-11.1-.5-16-1.6-37.5-6.1-56.2-18.3 0 0-19.9-11.7-32.2-32.9-6.9-11.9-10.3-26.2-9.2-42 .9-13.5 6.4-28.1 19.2-43-1.6 3.4-2.9 7.2-3.4 11.5 0 0-2.8 11.7 3.5 21.2 3.8 5.8 11.1 10.9 24.5 12 0 0 3.3.4 8.3.4 6.3 0 15.4-.7 24.2-3.8 5.7-2 10.7-3.8 16.5-10.1 4-4.5 35.9-46.6 42.3-54.1 4.5-5.2 9.6-9.9 14.6-13.6 6.8-5 13.2-8 17.1-8h.3zm-14.1 12.6c-4.9 3.6-9.6 8-13.6 12.7-3.1 3.6-12.5 15.9-21.7 27.7-11.5 15-18.7 24.3-20.7 26.5-6.9 7.5-13.2 9.7-18.8 11.7-9.7 3.4-19.5 4.1-26.1 4.1-4.7 0-8.1-.4-8.9-.5-13.4-1.1-23-6-28.7-14.5-2.3-3.6-3.7-7.4-4.3-10.9-2.6 6.067-4.1 12.233-4.5 18.5-1 14.2 1.9 27.6 8.4 38.8 11.4 19.5 30 30.7 30.2 30.8.067.067.133.1.2.1 18.1 11.8 39.2 16 53.7 17.4 3.1.3 6.8.5 10.5.5 14.9 0 28.8-2.3 38.2-6.4 8.2-3.5 11.4-6 14.3-8.3l.9-.7c8.3-6.5 17.2-13.9 20.4-19.3 5.2-8.7 11.9-21.4 15.3-27.9-29.3-25.7-37.8-54.8-39.7-74.9-1.1-12.1-.1-22.3 1.1-29.4-1.8 1-3.9 2.3-6.2 4z"/><path fill="#FEFEFE" fill-rule="nonzero" d="M203.7 257.3c-10.9-24-7.2-61.1-8-65.5 0 0 6.4-8.4 14.6-17.8 6.6-7.5 16-12.3 22.6-13.6 0 0-15.6 75 41.9 108.2l-5.1 8.3s-6.6 14.2-14.2 20.8c-8 6.8 0 0-11.5 7.7 0 0-26.8-18.1-40.3-48.1zM152.3 246s-18.2 10.2-36.6 10c0 0-14.6 32.5 13 74.7 0 0 48.8 18.3 73.5 2.7 0 0-45.2-18.5-49.9-87.4zm124.9-29.2-34.6-37.9 11.9-10.8 15.1 16.6 2.4-2.2-4.4-4.7 7.1-6.5 4.4 4.8 2.3-2.2-15.1-16.6 11.8-10.8 34.6 37.9-11.8 10.8-4.4-4.8-4.7 4.4-4.3-4.8-2.4 2.2 4.3 4.7-4.7 4.3 4.3 4.8zm40-36.8-17.9-48 36-13.4 4.5 12-21 7.8 2.2 6 21-7.8 4.5 12-21 7.8 2.2 6 21-7.8 4.5 12z"/><path fill="#FEFEFE" d="m358.7 163.7 3.3-51.2 31.9 2.1-.4 6.4 6.4.4-1 16-6.4-.4-.2 3.2 6.4.4-1.7 25.6-38.3-2.5zm23.2-11.4.4-6.4-6.4-.4-.4 6.4 6.4.4zm1.3-19.2.4-6.4-6.4-.4-.4 6.4 6.4.4z"/></g></svg>